<svg width="78" height="23" viewBox="0 0 78 23" fill="none" xmlns="http://www.w3.org/2000/svg">
<path d="M6.64648 0.671875L12.125 16.1406L17.5742 0.671875H23.3457V22H18.9365V16.1699L19.376 6.10645L13.6191 22H10.6016L4.85938 6.12109L5.29883 16.1699V22H0.904297V0.671875H6.64648ZM25.6461 13.9287C25.6461 12.3564 25.9488 10.9551 26.5543 9.72461C27.1598 8.49414 28.0289 7.54199 29.1617 6.86816C30.3043 6.19434 31.6275 5.85742 33.1314 5.85742C35.2701 5.85742 37.0133 6.51172 38.3609 7.82031C39.7184 9.12891 40.4752 10.9062 40.6314 13.1523L40.6607 14.2363C40.6607 16.668 39.982 18.6211 38.6246 20.0957C37.2672 21.5605 35.4459 22.293 33.1607 22.293C30.8756 22.293 29.0494 21.5605 27.6822 20.0957C26.3248 18.6309 25.6461 16.6387 25.6461 14.1191V13.9287ZM29.8795 14.2363C29.8795 15.7402 30.1627 16.8926 30.7291 17.6934C31.2955 18.4844 32.1061 18.8799 33.1607 18.8799C34.1861 18.8799 34.9869 18.4893 35.5631 17.708C36.1393 16.917 36.4273 15.6572 36.4273 13.9287C36.4273 12.4541 36.1393 11.3115 35.5631 10.501C34.9869 9.69043 34.1764 9.28516 33.1314 9.28516C32.0963 9.28516 31.2955 9.69043 30.7291 10.501C30.1627 11.3018 29.8795 12.5469 29.8795 14.2363ZM48.3664 16.8291L51.3107 6.15039H55.7346L50.3879 22H46.3449L40.9982 6.15039H45.4221L48.3664 16.8291ZM64.0994 22.293C61.7752 22.293 59.8807 21.5801 58.4158 20.1543C56.9607 18.7285 56.2332 16.8291 56.2332 14.4561V14.0459C56.2332 12.4541 56.5408 11.0332 57.1561 9.7832C57.7713 8.52344 58.6404 7.55664 59.7635 6.88281C60.8963 6.19922 62.1854 5.85742 63.6307 5.85742C65.7986 5.85742 67.5027 6.54102 68.743 7.9082C69.993 9.27539 70.618 11.2139 70.618 13.7236V15.4521H60.5252C60.6619 16.4873 61.0721 17.3174 61.7557 17.9424C62.449 18.5674 63.323 18.8799 64.3777 18.8799C66.0086 18.8799 67.283 18.2891 68.201 17.1074L70.2811 19.4365C69.6463 20.335 68.7869 21.0381 67.7029 21.5459C66.6189 22.0439 65.4178 22.293 64.0994 22.293ZM63.616 9.28516C62.7762 9.28516 62.0926 9.56836 61.5652 10.1348C61.0477 10.7012 60.7156 11.5117 60.5691 12.5664H66.4578V12.2295C66.4383 11.292 66.1844 10.5693 65.6961 10.0615C65.2078 9.54395 64.5145 9.28516 63.616 9.28516Z" fill="#0A1B32"/>
<path d="M72.6547 19.9199C72.6547 19.2461 72.8793 18.6992 73.3285 18.2793C73.7875 17.8594 74.3588 17.6494 75.0424 17.6494C75.7357 17.6494 76.307 17.8594 76.7562 18.2793C77.2152 18.6992 77.4447 19.2461 77.4447 19.9199C77.4447 20.584 77.2201 21.126 76.7709 21.5459C76.3217 21.9561 75.7455 22.1611 75.0424 22.1611C74.349 22.1611 73.7777 21.9561 73.3285 21.5459C72.8793 21.126 72.6547 20.584 72.6547 19.9199Z" fill="#7FB800"/>
</svg>
